<svg xmlns="http://www.w3.org/2000/svg" width="222" height="34" viewBox="0 16 464 71" fill="none">
<g transform="translate(0,16) scale(1.8421) translate(-13,-13)"><path fill="#ffffff" fill-rule="evenodd" d="M13 13 H44 Q51 13 51 20 V51 H13 Z M24 24 V40 H40 Z"/></g>
<path fill="#ffffff" d="M118.90 86L98.30 86L98.30 16.30L119 16.30Q136.40 16.30 145.95 25.50Q155.50 34.70 155.50 51.70L155.50 51.70Q155.50 68.30 146.10 77.15Q136.70 86 118.90 86L118.90 86ZM112.60 29.40L112.60 72.90L117.40 72.90Q124.90 72.90 130.20 71.05Q135.50 69.20 138.30 64.50Q141.10 59.80 141.10 51.20L141.10 51.20Q141.10 42.80 138.40 38.05Q135.70 33.30 130.70 31.35Q125.70 29.40 118.70 29.40L118.70 29.40L112.60 29.40ZM184.30 87L184.30 87Q177.70 87 172.95 84.90Q168.20 82.80 165.25 79.20Q162.30 75.60 160.95 71.05Q159.60 66.50 159.60 61.60L159.60 61.60Q159.60 56.90 160.95 52.30Q162.30 47.70 165.10 43.95Q167.90 40.20 172.50 37.95Q177.10 35.70 183.50 35.70L183.50 35.70Q189.20 35.70 193.55 37.65Q197.90 39.60 200.80 43.05Q203.70 46.50 205.15 51.20Q206.60 55.90 206.60 61.30L206.60 61.30Q206.60 62.20 206.55 63.40Q206.50 64.60 206.30 66.10L206.30 66.10L173.30 66.10Q173.90 70.70 177.20 72.95Q180.50 75.20 185.10 75.20L185.10 75.20Q188.80 75.20 192.50 73.90Q196.20 72.60 199.00 70.20L199.00 70.20L205.30 79.80Q201.60 82.40 198.45 84Q195.30 85.60 191.95 86.30Q188.60 87 184.30 87ZM197.70 55.90L193.10 59.20Q193.30 58.40 193.45 57.60Q193.60 56.80 193.60 56.10L193.60 56.10Q193.60 54.10 192.85 52.45Q192.10 50.80 190.80 49.60Q189.50 48.40 187.70 47.75Q185.90 47.10 183.70 47.10L183.70 47.10Q180.20 47.10 177.95 48.45Q175.70 49.80 174.55 51.80Q173.40 53.80 173.10 55.90L173.10 55.90L197.70 55.90ZM235.20 87L235.20 87Q229 87 224.45 84.85Q219.90 82.70 216.85 79.05Q213.80 75.40 212.30 70.80Q210.80 66.20 210.80 61.30L210.80 61.30Q210.80 56.40 212.30 51.80Q213.80 47.20 216.85 43.60Q219.90 40 224.45 37.85Q229 35.70 235.20 35.70L235.20 35.70Q242.80 35.70 248.40 39.30Q254 42.90 256.80 50.40L256.80 50.40L244.80 55.20Q243.70 51.80 241.45 49.70Q239.20 47.60 235.20 47.60L235.20 47.60Q231.40 47.60 229.05 49.60Q226.70 51.60 225.60 54.75Q224.50 57.90 224.50 61.30L224.50 61.30Q224.50 64.70 225.60 67.90Q226.70 71.10 229.05 73.10Q231.40 75.10 235.20 75.10L235.20 75.10Q239.20 75.10 241.45 73Q243.70 70.90 244.80 67.50L244.80 67.50L256.80 72.30Q254 79.70 248.40 83.35Q242.80 87 235.20 87ZM312.10 86L295.70 86L282.20 64.40L275.20 72.50L275.20 55.40L292.70 36.70L310.20 36.70L292.30 55.20L312.10 86ZM276.20 86L262.50 86L262.50 16.30L276.20 16.30L276.20 86ZM360.30 86L316.90 86L316.90 16.30L331.20 16.30L331.20 73.20L360.30 73.20L360.30 86ZM407.90 86L395.30 86L394.30 79.40L394.30 54.80Q394.30 50.80 391.65 49Q389 47.20 384.80 47.20L384.80 47.20Q380.90 47.20 376.65 48.70Q372.40 50.20 369.40 52.60L369.40 52.60L363 43.10Q368.60 39 374.10 37.35Q379.60 35.70 386 35.70L386 35.70Q396.30 35.70 402.10 40.80Q407.90 45.90 407.90 54.80L407.90 54.80L407.90 86ZM381 87L381 87Q375.60 87 371.30 85Q367 83 364.50 79.25Q362 75.50 362 70.60L362 70.60Q362 66.30 363.80 63.20Q365.60 60.10 368.60 58.40L368.60 58.40Q371 57 374 56.40Q377 55.80 380.30 55.80L380.30 55.80L395.40 55.80L395.40 65.90L382.30 65.90Q380.90 65.90 379.70 66.15Q378.50 66.40 377.50 67.10L377.50 67.10Q376.70 67.70 376.25 68.60Q375.80 69.50 375.80 70.60L375.80 70.60Q375.80 73.10 377.75 74.55Q379.70 76 383 76L383 76Q386.10 76 388.65 74.70Q391.20 73.40 392.75 71.10Q394.30 68.80 394.30 65.90L394.30 65.90L397.50 73.40Q395.90 78.60 393.25 81.55Q390.60 84.50 387.45 85.75Q384.30 87 381 87ZM443.10 87L443.10 87Q439.80 87 436.45 85.70Q433.10 84.40 430.45 80.95Q427.80 77.50 426.50 71.10L426.50 71.10L429.50 73.30L429.50 86L415.90 86L415.90 16.30L429.50 16.30L429.50 49.60L426.90 51Q427.80 45.50 430.20 42.15Q432.60 38.80 436 37.25Q439.40 35.70 443.10 35.70L443.10 35.70Q448.80 35.70 453.45 38.70Q458.10 41.70 460.90 47.40Q463.70 53.10 463.70 61.30L463.70 61.30Q463.70 68.70 461.25 74.50Q458.80 80.30 454.20 83.65Q449.60 87 443.10 87ZM439.10 74.40L439.10 74.40Q442.40 74.40 444.85 72.85Q447.30 71.30 448.60 68.35Q449.90 65.40 449.90 61.30L449.90 61.30Q449.90 57.20 448.60 54.30Q447.30 51.40 444.85 49.80Q442.40 48.20 439.10 48.20L439.10 48.20Q435.80 48.20 433.35 49.85Q430.90 51.50 429.60 54.40Q428.30 57.30 428.30 61.30L428.30 61.30Q428.30 65.30 429.60 68.25Q430.90 71.20 433.35 72.80Q435.80 74.40 439.10 74.40Z"/>
</svg>